<svg width="81" height="63" viewBox="0 0 81 63" fill="none" xmlns="http://www.w3.org/2000/svg">
<path d="M9 0C4.03594 0 0 4.03594 0 9V13.5H81V9C81 4.03594 76.9641 0 72 0H9ZM81 27H0V54C0 58.9641 4.03594 63 9 63H72C76.9641 63 81 58.9641 81 54V27ZM15.75 45H24.75C25.9875 45 27 46.0125 27 47.25C27 48.4875 25.9875 49.5 24.75 49.5H15.75C14.5125 49.5 13.5 48.4875 13.5 47.25C13.5 46.0125 14.5125 45 15.75 45ZM31.5 47.25C31.5 46.0125 32.5125 45 33.75 45H51.75C52.9875 45 54 46.0125 54 47.25C54 48.4875 52.9875 49.5 51.75 49.5H33.75C32.5125 49.5 31.5 48.4875 31.5 47.25Z" fill="#F00300"/>
</svg>
