<svg width="528" height="343" viewBox="0 0 528 343" fill="none" xmlns="http://www.w3.org/2000/svg">
<path fill-rule="evenodd" clip-rule="evenodd" d="M13.0628 80.3785V178.205L97.8275 163.805L142.074 167.132L282.981 144.61L314.582 146.461V15.4156L266.066 0L139.473 50.4793L97.8275 42.3637L13.0628 80.3785ZM23.2836 123.486V115.119L97.8275 88.8564V98.9329L23.2836 123.486ZM23.2836 130.683V139.465L97.8275 118.982V106.129L23.2836 130.683ZM23.2836 154.324V146.552L97.8275 126.069V137.556L23.2836 154.324ZM23.2836 161.327V168.976L97.8275 155.321V144.558L23.2836 161.327ZM97.8275 81.6081L23.2836 107.87V98.9199L97.8275 71.3764V81.6081ZM97.8275 64.0892L23.2836 91.6393V84.2615L97.8275 53.4433V64.0957V64.0892ZM141.696 61.9277L266.066 15.7845V29.7828L141.696 71.1887V61.9277ZM141.696 79.8543V89.5165L266.066 50.8417V38.4678L141.696 79.8608V79.8543ZM141.696 107.87V98.1498L266.066 59.4749V72.7419L141.696 107.87ZM141.696 116.445V124.244L266.066 95.0628V81.3234L141.696 116.445ZM141.696 141.329V132.735L266.066 103.56V117.092L141.696 141.329ZM141.696 149.762V159.01L266.066 139.258V125.532L141.696 149.762ZM377.426 16.1534H457.732V85.1805H528V165.656H457.732V237.265H377.426V154.208L327.978 147.568V85.1805H377.413V16.1534H377.426ZM0 188.909L98.1925 172.665L141.696 175.991L284.461 157.159L361.423 163.074V236.897H0.00651836V188.909H0ZM10.4489 215.119V196.105L97.821 185.77V209.767L10.4489 215.119ZM141.696 188.171V209.579L289.858 202.564V172.296L141.696 188.171ZM110.108 331.467C120.981 331.467 130.067 327.908 137.355 320.802C144.721 313.696 148.403 305.044 148.403 294.851C148.403 284.593 144.753 275.94 137.459 268.899C130.237 261.793 121.183 258.234 110.31 258.234C99.4375 258.234 90.3184 261.793 82.9526 268.899C75.6586 276.005 72.0148 284.658 72.0148 294.851C72.0148 305.108 75.626 313.793 82.8549 320.906C90.1489 327.947 99.2355 331.467 110.108 331.467ZM123.275 308.331C119.964 312.02 115.649 313.864 110.304 313.864C105.043 313.864 100.683 312.02 97.2409 308.331C93.8644 304.578 92.1761 300.08 92.1761 294.851C92.1761 289.55 93.8252 285.059 97.1366 281.37C100.513 277.681 104.835 275.837 110.108 275.837C115.375 275.837 119.729 277.714 123.177 281.467C126.619 285.156 128.34 289.621 128.34 294.851C128.34 300.151 126.652 304.642 123.275 308.331ZM0 259.645V330.057H36.5745C45.0158 330.057 51.6058 328.348 56.3251 324.925C61.064 321.449 63.4236 316.68 63.4236 310.642C63.4236 306.014 62.2047 302.325 59.7733 299.575C57.4137 296.831 53.9329 294.721 49.344 293.239C56.6315 290.087 60.2818 284.858 60.2818 277.552C60.2818 272.853 58.763 268.996 55.7189 265.98C51.469 261.754 45.0158 259.645 36.3724 259.645H0ZM34.3452 314.363H19.1509V301.387H34.1432C40.5572 301.387 43.7708 303.503 43.7708 307.729C43.7708 312.149 40.6289 314.363 34.3452 314.363ZM31.5097 287.706H19.1509V275.338H31.9139C37.8586 275.338 40.831 277.345 40.831 281.37C40.831 285.596 37.7217 287.706 31.5097 287.706ZM160.671 259.645H180.33V288.211L204.742 259.645H228.045L201.196 289.919L228.97 330.057H205.361L187.527 303.905L180.337 311.852V330.057H160.678L160.671 259.645ZM256.36 259.645H236.708V330.057H256.36V311.852L263.557 303.905L281.384 330.057H304.994L277.232 289.919L304.081 259.645H280.778L256.36 288.211V259.645ZM307.471 343V312.958H313.755C316.342 306.032 318.176 298.851 319.224 291.537C320.371 284.088 320.944 274.064 320.944 261.457V259.645H374.949V312.958H382.947L380.718 343H364.115V330.057H326.426L325.103 343H307.471ZM334.32 312.958H355.29V276.743H339.893V277.455C339.893 290.055 338.036 301.892 334.32 312.958ZM445.412 330.057V343H462.034L464.257 312.958H456.252V259.645H436.6V312.958H412.384V259.645H392.731V330.057H445.412Z" fill="#F00300"/>
</svg>
