<svg width="50" height="72" viewBox="0 0 50 72" fill="none" xmlns="http://www.w3.org/2000/svg">
<path d="M0 9C0 4.03594 4.03594 0 9 0H40.5C45.4641 0 49.5 4.03594 49.5 9V63C49.5 67.9641 45.4641 72 40.5 72H9C4.03594 72 0 67.9641 0 63V9ZM29.25 63C29.25 61.8065 28.7759 60.6619 27.932 59.818C27.0881 58.9741 25.9435 58.5 24.75 58.5C23.5565 58.5 22.4119 58.9741 21.568 59.818C20.7241 60.6619 20.25 61.8065 20.25 63C20.25 64.1935 20.7241 65.3381 21.568 66.182C22.4119 67.0259 23.5565 67.5 24.75 67.5C25.9435 67.5 27.0881 67.0259 27.932 66.182C28.7759 65.3381 29.25 64.1935 29.25 63ZM40.5 9H9V54H40.5V9Z" fill="#F00300"/>
</svg>
