<svg width="528" height="342" viewBox="0 0 528 342" fill="none" xmlns="http://www.w3.org/2000/svg">
<path fill-rule="evenodd" clip-rule="evenodd" d="M13.0628 80.1442V177.685L97.8275 163.328L142.074 166.644L282.981 144.189L314.582 146.034V15.3706L266.066 0L139.473 50.3321L97.8275 42.2402L13.0628 80.1442ZM23.2836 123.126V114.783L97.8275 88.5974V98.6444L23.2836 123.126ZM23.2836 130.302V139.059L97.8275 118.635V105.82L23.2836 130.302ZM23.2836 153.874V146.124L97.8275 125.701V137.155L23.2836 153.874ZM23.2836 160.856V168.483L97.8275 154.868V144.137L23.2836 160.856ZM97.8275 81.3702L23.2836 107.556V98.6315L97.8275 71.1683V81.3702ZM97.8275 63.9024L23.2836 91.3721V84.0159L97.8275 53.2875V63.9088V63.9024ZM141.696 61.7471L266.066 15.7385V29.6959L141.696 70.9811V61.7471ZM141.696 79.6215V89.2556L266.066 50.6934V38.3556L141.696 79.6279V79.6215ZM141.696 107.556V97.8636L266.066 59.3015V72.5298L141.696 107.556ZM141.696 116.106V123.881L266.066 94.7856V81.0863L141.696 116.106ZM141.696 140.917V132.348L266.066 103.258V116.751L141.696 140.917ZM141.696 149.325V158.546L266.066 138.852V125.166L141.696 149.325ZM377.426 16.1063H457.732V84.9322H528V165.173H457.732V236.574H377.426V153.758L327.978 147.137V84.9322H377.413V16.1063H377.426ZM0 188.358L98.1925 172.162L141.696 175.478L284.461 156.701L361.423 162.598V236.206H0.00651836V188.358H0ZM10.4489 214.492V195.534L97.821 185.229V209.156L10.4489 214.492ZM141.696 187.623V208.968L289.858 201.974V171.794L141.696 187.623ZM110.108 330.501C120.981 330.501 130.067 326.952 137.355 319.867C144.721 312.782 148.403 304.154 148.403 293.991C148.403 283.763 144.753 275.136 137.459 268.115C130.237 261.03 121.183 257.481 110.31 257.481C99.4375 257.481 90.3184 261.03 82.9526 268.115C75.6586 275.2 72.0148 283.828 72.0148 293.991C72.0148 304.219 75.626 312.878 82.8549 319.97C90.1489 326.991 99.2355 330.501 110.108 330.501ZM123.275 307.432C119.964 311.11 115.649 312.949 110.304 312.949C105.043 312.949 100.683 311.11 97.2409 307.432C93.8644 303.69 92.1761 299.205 92.1761 293.991C92.1761 288.706 93.8252 284.228 97.1366 280.55C100.513 276.872 104.835 275.033 110.108 275.033C115.375 275.033 119.729 276.904 123.177 280.647C126.619 284.325 128.34 288.777 128.34 293.991C128.34 299.276 126.652 303.754 123.275 307.432ZM0 258.888V329.094H36.5745C45.0158 329.094 51.6058 327.391 56.3251 323.977C61.064 320.512 63.4236 315.756 63.4236 309.736C63.4236 305.122 62.2047 301.444 59.7733 298.702C57.4137 295.966 53.9329 293.862 49.344 292.384C56.6315 289.242 60.2818 284.028 60.2818 276.743C60.2818 272.058 58.763 268.212 55.7189 265.205C51.469 260.991 45.0158 258.888 36.3724 258.888H0ZM34.3452 313.446H19.1509V300.508H34.1432C40.5572 300.508 43.7708 302.618 43.7708 306.832C43.7708 311.239 40.6289 313.446 34.3452 313.446ZM31.5097 286.867H19.1509V274.536H31.9139C37.8586 274.536 40.831 276.536 40.831 280.55C40.831 284.763 37.7217 286.867 31.5097 286.867ZM160.671 258.888H180.33V287.37L204.742 258.888H228.045L201.196 289.074L228.97 329.094H205.361L187.527 303.018L180.337 310.943V329.094H160.678L160.671 258.888ZM256.36 258.888H236.708V329.094H256.36V310.943L263.557 303.018L281.384 329.094H304.994L277.232 289.074L304.081 258.888H280.778L256.36 287.37V258.888ZM307.471 342V312.046H313.755C316.342 305.14 318.176 297.98 319.224 290.687C320.371 283.26 320.944 273.264 320.944 260.694V258.888H374.949V312.046H382.947L380.718 342H364.115V329.094H326.426L325.103 342H307.471ZM334.32 312.046H355.29V275.936H339.893V276.646C339.893 289.209 338.036 301.012 334.32 312.046ZM445.412 329.094V342H462.034L464.257 312.046H456.252V258.888H436.6V312.046H412.384V258.888H392.731V329.094H445.412Z" fill="#F00300"/>
</svg>
