<svg width="130" height="130" viewBox="0 0 130 130" fill="none" xmlns="http://www.w3.org/2000/svg">
<g clip-path="url(#clip0_2091_190)">
<path d="M64.8818 24.26C37.9537 24.26 14.9572 41.0264 5.64014 64.6935C14.9572 88.3605 37.9537 105.127 64.8818 105.127C91.8098 105.127 114.806 88.3605 124.123 64.6935C114.806 41.0264 91.8098 24.26 64.8818 24.26ZM64.8818 91.6491C50.0175 91.6491 37.9537 79.573 37.9537 64.6935C37.9537 49.814 50.0175 37.7378 64.8818 37.7378C79.746 37.7378 91.8098 49.814 91.8098 64.6935C91.8098 79.573 79.746 91.6491 64.8818 91.6491ZM64.8818 48.5201C55.9417 48.5201 48.7249 55.7442 48.7249 64.6935C48.7249 73.6427 55.9417 80.8669 64.8818 80.8669C73.8219 80.8669 81.0386 73.6427 81.0386 64.6935C81.0386 55.7442 73.8219 48.5201 64.8818 48.5201Z" fill="#F00300"/>
</g>
<defs>
<clipPath id="clip0_2091_190">
<rect width="129.254" height="129.387" fill="white" transform="translate(0.254517)"/>
</clipPath>
</defs>
</svg>
